<?xml version="1.0" encoding="UTF-8"?>
<svg id="Capa_1" data-name="Capa 1" xmlns="http://www.w3.org/2000/svg" viewBox="0 0 811.24 760.02">
  <defs>
    <style>
      .cls-1 {
        letter-spacing: -.01em;
      }

      .cls-1, .cls-2, .cls-3, .cls-4 {
        fill: #3c3c3b;
      }

      .cls-1, .cls-2, .cls-4 {
        font-family: KhmerUI, 'Khmer UI';
      }

      .cls-5 {
        fill: #03579d;
      }

      .cls-2 {
        letter-spacing: -.03em;
      }

      .cls-3 {
        letter-spacing: -.01em;
      }

      .cls-3, .cls-6 {
        font-family: KhmerUI-Bold, 'Khmer UI';
        font-weight: 700;
      }

      .cls-4 {
        font-size: 66.57px;
        letter-spacing: .13em;
      }

      .cls-7 {
        fill: #03589b;
      }

      .cls-8 {
        fill: #2481c6;
      }

      .cls-6 {
        letter-spacing: -.01em;
      }

      .cls-6, .cls-9 {
        fill: #1d70b7;
      }

      .cls-10 {
        fill: #1a1a1a;
      }

      .cls-11 {
        font-size: 135.32px;
      }
    </style>
  </defs>
  <g>
    <path class="cls-9" d="m432.14,464.81c0-458.51,12.85-370.73-38.55-464.81l-96.43,75.99v419.92c45.66-14.38,94.5-25.15,134.98-31.11Z"/>
    <path class="cls-5" d="m262.95,119.87l-78.23,50.36v285.3c0,45.67-15.51,28.93,78.23-3.01V119.87Z"/>
    <path class="cls-7" d="m552.5,505.22c17.3,0,12.39,30.32,12.39-187.77,0-20.19,3.22-13.74-12.39-27.44-107.32-94.92-89.35-86.07-89.35-62.46l89.35,79.03v198.64Z"/>
    <path class="cls-10" d="m602.89,326.76c.48.13.59.26,0-.25v.25Z"/>
    <g>
      <path class="cls-8" d="m712.65,456.18c-4.57,2.55-11.28,6.19-19.8,10.38-4.31,2.02-9,4.27-14.17,6.47-2.57,1.12-5.29,2.18-8.08,3.29-2.75,1.16-5.69,2.18-8.67,3.27-11.97,4.29-25.6,8.03-40.37,10.82-12.72,2.14-26.25,3.7-40.46,4-6.6.06-13.56-.07-20.84-.44-6.64-.34-12.99-.85-19.02-1.48-2.66-.3-6.04-.72-9.95-1.3-3.34-.49-6.69-1.04-10.06-1.66-18.13-3.23-36.72-7.97-55.43-14-4.79-1.39-9.08-3.1-13.62-4.62l-3.38-1.14-3.76-1.4-7.2-2.72-42.44-15.9c-19.48-6.04-39.41-10.95-59.49-14.35-22.76-3.85-45.7-5.75-68.06-5.47-7.38.07-14.69.43-21.9,1.01-21.48.48-38.27,4.56-49.48,8.15-15.95,5.11-28.12,11.65-42.38,19.3-12.1,6.5-21.86,12.55-28.74,17.03-2.04,1.52-4.04,3.04-5.99,4.48-2.99,2.5-5.92,4.79-8.61,7.23-10.78,9.73-18.91,19.26-24.74,27.6-5.85,8.26-9.71,15.32-12.03,20.09-1.13,2.38-1.94,4.27-2.5,5.53s-.85,1.91-.85,1.91c0,0,.59-.4,1.73-1.16,1.15-.77,2.87-1.88,5.02-3.41,2.19-1.52,4.97-3.15,8.03-5.16,1.52-1.01,3.36-1.95,5.14-3.06,1.82-1.08,3.7-2.27,5.81-3.35,8.21-4.59,18.31-9.53,30.07-13.96,2.93-1.06,5.96-2.15,9.08-3.27,3.19-.95,6.38-2.01,9.72-2.92,6.66-1.85,13.61-3.69,21.02-4.94,14.68-2.83,30.66-4.56,47.64-4.86,16.95-.37,34.85.52,53.38,2.8,18.52,2.23,37.64,5.61,57.02,10.08,19.38,4.52,39.03,9.96,58.64,16.14,4.89,1.6,9.79,3.08,14.68,4.76l7.33,2.46,4.3,1.45,3.88,1.26,7.75,2.49,3.92,1.25,4.38,1.26c5.81,1.6,11.74,3.38,17.37,4.62,22.67,5.48,45.73,8.82,68.33,9.64,22.58.92,44.7-1.13,65.12-5.33,20.44-4.18,39.13-11,55.26-18.95,8-4.15,15.56-8.17,22.27-12.8,3.42-2.16,6.59-4.56,9.71-6.73,3.06-2.28,5.97-4.57,8.71-6.88,5.48-4.59,10.41-9.02,14.66-13.44,4.31-4.32,8.02-8.5,11.22-12.37,6.44-7.69,10.79-14.21,13.66-18.68,1.46-2.21,2.44-4.01,3.15-5.17.7-1.19,1.06-1.79,1.06-1.79,0,0-2.46,1.37-7.07,3.93Z"/>
      <path class="cls-8" d="m390.39,564.85c-2.9-1.9-5.99-3.9-9.34-5.85-3.35-1.96-6.93-3.88-10.65-5.97-3.72-2.1-7.7-4.02-11.85-5.98-4.16-1.92-8.43-4.05-12.97-5.85-4.52-1.84-9.2-3.68-14-5.5-4.84-1.71-9.84-3.32-14.93-4.95-10.24-3.09-20.97-5.86-32.04-7.99-11.06-2.16-22.45-3.68-33.89-4.71-5.73-.41-11.48-.74-17.2-.94-2.87-.06-5.73-.08-8.57-.08-2.85-.01-5.7-.04-8.53.12-2.84.12-5.66.23-8.46.36-2.79.12-5.59.43-8.36.63-5.53.45-10.99,1.16-16.33,1.93-10.68,1.6-20.92,3.73-30.47,6.38-9.56,2.56-18.42,5.68-26.42,8.92-16.02,6.5-28.48,13.89-36.68,19.74-8.23,5.85-12.2,10.14-12.2,10.14,0,0,1.42-.18,4.08-.52,2.61-.29,6.45-.71,11.32-1.25,4.85-.46,10.66-1.01,17.26-1.52,6.62-.45,13.98-1.01,21.99-1.37,8.02-.33,16.58-.74,25.64-.84,9.04-.2,18.53-.19,28.29-.05,4.89.12,9.84.13,14.85.38,5.01.07,10.08.38,15.18.59,5.1.15,10.24.66,15.39.86,5.16.39,10.33.79,15.51,1.19,10.34.91,20.7,1.9,30.9,3.1,10.21,1.18,20.28,2.48,30.07,3.78,4.88.75,9.71,1.39,14.46,2.01,4.72.77,9.36,1.46,13.91,2.09,4.56.59,8.95,1.44,13.26,2.04,4.3.63,8.5,1.21,12.49,1.9,8.1,1.23,15.53,2.37,22.12,3.38,6.72.94,12.57,1.76,17.4,2.43,9.72,1.37,15.57,1.71,15.57,1.71,0,0-4.21-3.93-12.12-10.04-3.91-3.15-8.88-6.51-14.67-10.31Z"/>
    </g>
  </g>
  <g>
    <text class="cls-11" transform="translate(0 672.61)"><tspan class="cls-6" x="0" y="0">Ocean</tspan><tspan class="cls-3" x="387.34" y="0"> </tspan><tspan class="cls-1" x="423.05" y="0">D</tspan><tspan class="cls-2" x="516.31" y="0">r</tspan><tspan class="cls-1" x="559.94" y="0">eam</tspan></text>
    <text class="cls-4" transform="translate(185.01 744.35)"><tspan x="0" y="0">Inmobiliaria</tspan></text>
  </g>
</svg>